#!OML:ASF I:\Actors\actors\Patient Classification 1\Patient 1\Session 1\Subject1.ASF
:FULLY-SPECIFIED
:DEGREES
433
root 0.605608 17.5144 8.84153 8.59334 -8.30175 -9.43228
lowerback 0.629309 1.20454 7.88711
upperback -7.84001 2.12364 1.49025
thorax -8.4381 0.545114 -2.98637
lowerneck -12.0807 3.80274 8.7667
upperneck 24.3438 4.14141 -3.03155
head 9.99091 2.383 -2.03528
rclavicle 7.40473e-015 9.93923e-015
rhumerus 72.4888 62.3489 1.71597
rradius 121.057
rwrist -45.1598
rhand -2.14271 -34.0995
rfingers 7.12502
rthumb 23.5365 -62.6795
lclavicle 7.40473e-015 9.93923e-015
lhumerus 20.4325 -62.1843 26.21
lradius 92.2603
lwrist 64.7908
lhand 16.0924 -14.852
lfingers 7.12502
lthumb 40.8789 10.1027
rfemur -6.42337 24.7371 25.2975
rtibia 3.78312
rfoot -9.06011 -17.9298
rtoes -2.43282
lfemur 4.63707 -36.2471 -11.2442
ltibia -2.89837
lfoot -21.1501 49.7853
ltoes 11.3833
434
root 0.602249 17.5136 8.85228 8.53779 -7.26598 -9.7182
lowerback 0.47631 0.981407 7.8694
upperback -7.78949 1.81874 1.67848
thorax -8.33219 0.410212 -2.7515
lowerneck -12.4281 3.67983 8.4275
upperneck 24.3694 3.95725 -2.81296
head 10.0408 2.28879 -1.92026
rclavicle 3.03147e-015 -2.34566e-014
rhumerus 70.7993 63.2912 3.70699
rradius 121.804
rwrist -45.2879
rhand -2.87216 -33.8524
rfingers 7.12502
rthumb 22.8366 -62.5204
lclavicle 3.03147e-015 -2.34566e-014
lhumerus 20.9179 -62.2007 25.9799
lradius 92.2174
lwrist 64.5707
lhand 15.1695 -15.0108
lfingers 7.12502
lthumb 40.0112 10.2119
rfemur -6.13536 24.5526 25.7529
rtibia 3.6647
rfoot -9.35388 -18.6814
rtoes -1.70558
lfemur 4.45751 -36.5701 -10.6946
ltibia -3.01665
lfoot -19.9872 49.4024
ltoes 9.99753
435
root 0.602369 17.5133 8.85521 8.37231 -6.41808 -9.69457
lowerback 0.53425 0.789492 7.60023
upperback -7.72829 1.55933 1.79288
thorax -8.33046 0.308169 -2.4638
lowerneck -12.6651 3.59487 8.24195
upperneck 24.2805 3.87265 -2.86773
head 10.0439 2.22352 -1.91605
rclavicle 9.34288e-015 -5.1684e-015
rhumerus 67.8544 63.8429 3.95117
rradius 121.143
rwrist -44.4411
rhand -1.76462 -33.2244
rfingers 7.12502
rthumb 23.8991 -61.7573
lclavicle 9.34288e-015 -5.1684e-015
lhumerus 21.2025 -62.2663 25.9103
lradius 92.1586
lwrist 64.0376
lhand 13.7604 -15.4236
lfingers 7.12502
lthumb 38.6836 10.1863
rfemur -5.91592 24.3634 25.8224
rtibia 3.67576
rfoot -9.58637 -19.2936
rtoes -1.29636
lfemur 4.31741 -36.7126 -10.5408
ltibia -3.08056
lfoot -18.96 48.9143
ltoes 8.95863
436
root 0.604174 17.5155 8.85646 8.16954 -5.76494 -9.64113
lowerback 0.592387 0.600364 7.39033
upperback -7.6233 1.30393 1.91653
thorax -8.27716 0.206678 -2.1991
lowerneck -12.907 3.5929 8.13613
upperneck 24.269 3.93543 -3.1047
head 10.0904 2.21391 -1.97109
rclavicle 1.20762e-014 -3.06128e-014
rhumerus 64.9205 63.8498 3.5892
rradius 120.055
rwrist -44.7701
rhand -3.88216 -33.3532
rfingers 7.12502
rthumb 21.8671 -62.1376
lclavicle 1.20762e-014 -3.06128e-014
lhumerus 20.6957 -62.1531 26.4862
lradius 92.1411
lwrist 63.7905
lhand 13.5462 -15.738
lfingers 7.12502
lthumb 38.4815 9.92862
rfemur -5.66524 24.1903 25.8701
rtibia 3.67765
rfoot -9.67292 -19.7702
rtoes -1.20306
lfemur 4.30045 -36.9219 -10.5554
ltibia -3.09665
lfoot -18.1559 48.6039
ltoes 8.07436
437
root 0.60803 17.5201 8.85749 8.00092 -5.34785 -9.71834
lowerback 0.791212 0.401699 7.47822
upperback -7.63327 1.07166 2.04738
thorax -8.43057 0.0865517 -2.09362
lowerneck -13.0569 3.68219 8.16537
upperneck 24.4759 4.13037 -3.42712
head 10.2128 2.27103 -2.0644
rclavicle 7.95139e-015 -5.96354e-015
rhumerus 62.9432 63.221 2.47502
rradius 117.516
rwrist -45.0424
rhand -3.61108 -33.9547
rfingers 7.12502
rthumb 22.1274 -62.7085
lclavicle 7.95139e-015 -5.96354e-015
lhumerus 19.2869 -62.0503 27.6776
lradius 92.2131
lwrist 64.1089
lhand 14.7568 -15.6746
lfingers 7.12502
lthumb 39.6227 9.66415
rfemur -5.44179 24.144 26.0567
rtibia 3.69703
rfoot -9.69096 -20.1266
rtoes -1.21108
lfemur 4.36764 -37.2245 -10.5199
ltibia -3.06914
lfoot -17.7205 48.5371
ltoes 7.50721
438
root 0.613226 17.5252 8.86023 7.92115 -5.3019 -9.83117
lowerback 1.04027 0.306894 7.79874
upperback -7.77634 0.99785 2.07039
thorax -8.7464 0.0147354 -2.24139
lowerneck -13.0104 3.77733 8.37844
upperneck 24.8039 4.29822 -3.70287
head 10.3458 2.34094 -2.17923
rclavicle 1.52567e-014 -2.54444e-014
rhumerus 60.9835 62.294 0.262118
rradius 114.831
rwrist -45.7007
rhand -4.26134 -35.2134
rfingers 7.12502
rthumb 21.503 -64.0399
lclavicle 1.52567e-014 -2.54444e-014
lhumerus 18.0483 -62.1968 28.6035
lradius 92.2302
lwrist 64.7775
lhand 16.3393 -15.2889
lfingers 7.12502
lthumb 41.1108 9.59215
rfemur -5.32893 24.1852 26.2287
rtibia 3.71456
rfoot -9.61673 -20.2321
rtoes -1.56144
lfemur 4.43758 -37.197 -10.4378
ltibia -3.04101
lfoot -17.7889 48.4289
ltoes 7.67763
